<svg width="152" height="139" viewBox="0 0 152 139" fill="none" xmlns="http://www.w3.org/2000/svg">
<path d="M74.3184 33.4624C79.1822 33.2679 84.2405 32.8788 88.9097 34.6297C90.6607 35.4079 93.3844 35.0188 93.7735 38.1316C93.7735 38.5207 94.7462 38.7153 95.3298 38.5207C97.0808 38.3262 98.4427 39.2989 99.4154 40.6608C100.388 42.2172 101.75 43.3845 103.112 44.5518C105.057 46.3027 106.419 48.6373 107.587 50.9719C110.116 55.8357 112.45 60.6994 113.423 65.9523C113.423 66.1469 113.618 66.3414 113.423 66.5359C112.256 71.9834 114.59 77.6253 112.839 83.2673C112.645 84.24 112.061 85.4073 113.423 86.1855C114.007 86.5746 113.618 87.3528 113.423 87.7419C112.645 89.6874 111.478 91.2438 110.505 92.9948C106.808 98.4422 101.75 102.722 97.4699 107.781C94.1626 111.672 90.077 113.423 85.4078 114.784C80.7386 116.146 76.0694 117.508 71.0111 117.703C67.7037 117.897 64.5909 117.703 61.2836 116.73C59.3381 116.146 57.198 115.757 55.058 115.563C49.8051 114.784 45.3304 111.672 40.6612 109.726C38.3266 108.753 36.7702 106.808 35.6029 104.668C34.6302 102.917 33.6574 100.971 32.6847 99.0258C32.101 97.664 31.5174 96.3021 30.3501 95.3294C29.7664 94.7457 29.3773 93.773 29.1828 92.9948C28.4046 90.0765 27.8209 87.1583 27.8209 84.0455C27.8209 82.2945 28.4046 80.5436 26.8482 78.9872C26.4591 78.7926 26.6536 77.8199 26.8482 77.2362C27.4318 73.3452 28.21 69.4542 29.7664 65.9523C31.1283 62.4504 31.7119 58.7539 33.2683 55.4466C34.0465 53.6956 35.0193 52.1392 36.7702 50.9719C37.1593 50.5828 37.743 50.1937 38.1321 49.8046C43.3849 43.1899 50.1942 38.9098 57.7817 35.797C61.089 34.4352 64.5909 33.657 68.2874 33.657C70.2329 33.4624 72.3729 33.4624 74.3184 33.4624ZM87.9369 40.6608C86.9642 40.2717 86.7696 40.2717 86.3805 40.2717C82.1004 38.3262 77.8203 37.1589 72.9566 37.7425C72.3729 37.7425 71.7893 37.9371 71.2056 37.3534C70.4274 36.3807 69.2601 36.5752 68.0928 36.9643C64.7855 37.9371 61.2836 38.7153 57.9762 39.4935C54.4743 40.2717 51.3615 41.8281 48.4433 43.9681C46.4977 45.33 44.5523 46.8864 42.8013 48.4428C41.0503 50.1937 39.2994 51.9447 38.5212 54.4738C37.9375 56.2248 37.1593 58.5594 35.992 59.7267C33.6574 62.2558 32.2956 65.3686 31.3228 68.4815C30.1555 72.1779 28.9882 75.6798 29.961 79.7654C30.1555 80.349 30.1555 81.3218 30.9337 81.3218C32.4901 81.3218 31.9065 82.2945 31.9065 82.8782C31.5174 84.8237 31.9065 86.5746 33.2683 88.3256C34.2411 88.131 35.2138 87.3528 36.3811 87.5474C37.1593 87.7419 37.743 88.131 37.743 88.9092C37.743 89.6874 37.1593 89.882 36.5757 90.0765C35.7975 90.4656 34.8247 89.882 34.0465 90.4656C34.8247 92.8002 36.3811 94.3566 37.9375 95.913C38.3266 96.3021 38.9103 97.0803 39.6885 96.1076C40.0776 95.5239 40.6612 95.3294 41.0503 95.913C41.4394 96.4967 41.634 96.8858 41.2449 97.4694C40.6612 98.2476 39.883 98.8313 38.9103 99.4149C40.4667 101.166 41.8285 102.917 43.1904 104.473C44.1632 105.641 45.525 106.419 47.0814 106.808C48.8324 107.197 50.7779 107.975 52.3343 108.948C53.5016 109.532 54.2798 110.31 55.6416 109.532C56.0307 109.337 56.4198 109.532 56.6144 109.921C57.198 111.866 58.7544 111.672 60.3108 111.672C62.6454 111.672 64.98 111.477 66.9255 112.644C68.4819 113.617 69.6492 113.033 71.0111 112.255C72.5675 111.282 73.9293 109.921 76.0694 110.31C76.4585 110.31 77.0421 109.921 76.8476 109.337C76.653 108.17 76.653 108.17 77.4312 107.975C80.1549 107.391 82.6841 107.002 85.4078 106.224C89.2988 105.446 92.4116 103.695 94.9408 100.388C95.9135 99.2204 96.4972 97.4694 98.4427 97.2749C99.2209 97.0803 99.2209 96.4967 99.4154 95.913C99.61 94.9403 99.8045 93.773 100.388 92.8002C101.555 90.8547 101.945 88.9092 102.139 86.7692C102.334 85.0182 102.528 83.4618 102.917 81.7109C103.112 80.7381 103.306 79.7654 102.139 78.9872C101.75 78.7926 101.166 78.209 101.555 77.8199C102.528 77.0417 102.139 75.6798 103.112 74.9016C103.89 74.318 104.863 75.2907 105.641 74.7071C106.03 71.7888 105.446 68.676 106.419 65.7577C105.641 65.5632 104.863 65.3686 104.085 65.1741C102.917 64.5904 102.723 63.4231 103.696 62.4504C104.085 62.0613 104.668 62.0613 105.057 61.8667C107.587 60.6994 107.781 60.3103 106.419 57.9757C104.474 54.6684 102.139 51.7501 99.9991 48.4428C98.6372 46.3027 96.6917 44.5518 94.7462 43.1899C92.0225 41.2444 88.9097 39.4935 85.9914 37.7425C82.6841 35.6025 78.404 34.4352 74.1239 35.6025C78.7931 37.3534 84.0459 36.1861 87.9369 40.6608ZM88.326 107.002C86.9642 107.002 86.186 107.197 85.6023 108.17C85.6023 108.364 85.7969 108.559 85.7969 108.559C87.1587 109.142 87.5478 108.364 88.326 107.002ZM109.921 65.3687C109.532 64.2014 109.921 63.034 108.754 61.8667C108.754 63.2286 108.365 64.3959 109.921 65.3687ZM94.7462 41.6335C94.3571 40.4662 93.5789 39.8826 91.8279 39.688C92.6061 40.2717 92.9952 40.6608 93.3843 40.8553C93.968 41.0499 94.3571 41.2444 94.7462 41.6335ZM38.1321 103.695C38.5212 104.473 38.7157 105.251 39.6885 105.446C39.883 105.446 40.0776 105.251 40.0776 105.057C40.0776 104.084 39.2994 103.89 38.5212 103.5C38.5212 103.5 38.3266 103.695 38.1321 103.695ZM47.0814 109.921C47.276 110.115 47.2759 110.31 47.4705 110.31C47.8596 110.504 48.2487 111.088 48.6378 110.504C48.0542 110.31 47.8596 109.532 47.0814 109.921ZM80.7386 108.753C80.9331 108.364 80.544 108.17 80.3495 108.17C79.9604 108.17 79.5713 108.364 79.3767 108.559C79.1822 108.753 79.3767 109.337 79.9604 109.337C80.3495 109.337 80.544 109.142 80.7386 108.753ZM112.45 87.9365C111.478 88.5201 111.088 89.1038 111.478 89.882C112.061 89.4929 112.45 88.9092 112.45 87.9365Z" fill="black" fill-opacity="0.88"/>
<path d="M125.485 58.1705C123.15 58.1705 122.372 57.3923 122.177 55.0577C121.983 53.1122 123.15 51.5558 124.707 51.3612C126.263 51.1667 126.652 51.5558 127.041 53.1122C127.041 53.5013 127.041 54.0849 127.236 54.2795C128.987 55.2522 128.209 55.6413 127.236 56.8086C126.652 57.7814 126.263 58.365 125.485 58.1705Z" fill="black" fill-opacity="0.88"/>
<path d="M43.7734 26.6533C42.217 26.8479 41.2442 26.6533 42.0224 24.9024C42.217 24.7078 42.0224 24.3187 42.0224 23.9296C42.0224 22.9569 41.8279 21.595 43.1897 21.4005C44.357 21.2059 45.5243 21.7896 46.4971 22.5678C46.6916 22.7623 46.8862 23.1514 46.8862 23.346C46.8862 24.5133 46.3025 25.486 45.5243 26.2642C45.1352 27.0424 44.5516 26.8479 43.7734 26.6533Z" fill="black" fill-opacity="0.88"/>
<path d="M17.7037 68.6761C17.5091 69.8434 16.3418 70.8162 17.3146 72.3726C17.7037 73.1508 16.9255 73.5399 16.1473 73.7345C15.1745 73.929 14.3963 73.929 13.8127 73.1508C12.4508 71.2053 13.0345 69.4543 15.1745 68.6761C15.7582 68.0925 16.7309 67.8979 17.7037 68.6761Z" fill="black" fill-opacity="0.88"/>
<path d="M128.403 125.096C128.597 124.318 127.819 122.567 129.959 122.761C131.126 122.761 132.294 124.318 132.099 125.485C131.905 126.847 130.932 127.236 129.765 127.236C128.403 127.43 128.014 126.458 128.403 125.096Z" fill="black" fill-opacity="0.88"/>
<path d="M16.9256 107.392C16.9256 108.364 16.342 108.753 15.3692 108.753C14.7856 108.753 14.3965 108.17 14.3965 107.586C14.3965 106.808 14.9801 106.419 15.7583 106.419C16.5365 106.224 17.1202 106.613 16.9256 107.392Z" fill="black" fill-opacity="0.88"/>
<path d="M149.998 61.0888C150.193 60.5051 149.609 59.3378 150.971 59.3378C151.555 59.3378 151.749 59.7269 151.944 60.3106C151.944 61.2833 151.36 62.4506 150.582 62.2561C149.804 62.2561 149.998 61.6724 149.998 61.0888Z" fill="black" fill-opacity="0.88"/>
<path d="M51.5553 131.127C51.5553 131.905 51.1662 132.488 50.388 132.488C49.8044 132.488 49.2207 132.488 49.2207 131.905C49.2207 130.932 49.8044 130.543 50.5826 130.348C51.1662 130.154 51.3608 130.543 51.5553 131.127Z" fill="black" fill-opacity="0.88"/>
<path d="M1.9455 85.7965C1.9455 85.9911 1.9455 86.9638 0.7782 87.1583C0.3891 87.1583 0 86.9638 0 86.3802C0 85.4074 0.778199 84.4346 1.5564 84.6292C1.9455 84.8237 2.3346 85.0183 1.9455 85.7965Z" fill="black" fill-opacity="0.88"/>
<path d="M136.574 19.6495C136.38 20.4277 135.796 20.6223 135.018 20.6223C134.434 20.6223 134.045 20.4277 134.045 19.8441C134.045 18.8713 134.629 18.6768 135.407 18.6768C135.99 18.6768 136.574 18.8713 136.574 19.6495Z" fill="black" fill-opacity="0.88"/>
<path d="M116.146 7.39281C116.146 7.97646 115.757 8.36556 115.173 8.36556C114.589 8.36556 114.2 7.78191 114.2 7.19826C114.2 6.61461 114.589 6.22551 115.173 6.22551C115.757 6.42006 116.146 6.80916 116.146 7.39281Z" fill="black" fill-opacity="0.88"/>
<path d="M94.1621 137.936C93.9676 138.52 93.3839 138.52 92.9948 138.52C92.4112 138.52 92.0221 138.13 92.2166 137.547C92.2166 137.158 92.6057 136.963 92.9948 136.963C93.773 136.963 94.1621 137.352 94.1621 137.936Z" fill="black" fill-opacity="0.88"/>
<path d="M123.344 93.3839C123.15 93.773 122.955 94.1621 122.566 94.1621C121.788 94.1621 121.399 93.773 121.399 92.9948C121.399 92.6057 121.788 92.2166 122.177 92.2166C122.761 92.4111 123.15 92.6057 123.344 93.3839Z" fill="black" fill-opacity="0.88"/>
<path d="M111.477 31.128C111.088 30.9334 110.699 30.7389 110.699 30.3498C110.893 29.5716 111.477 29.377 112.255 29.377C112.644 29.377 113.033 29.7661 112.839 30.1552C112.839 30.7389 112.255 31.128 111.477 31.128Z" fill="black" fill-opacity="0.88"/>
<path d="M14.98 42.4117C14.98 42.9954 14.5909 43.3845 14.0072 43.3845C13.229 43.3845 13.229 42.8008 13.229 42.2172C13.229 41.8281 13.229 41.439 13.8127 41.439C14.5909 41.2444 14.98 41.8281 14.98 42.4117Z" fill="black" fill-opacity="0.88"/>
<path d="M94.7455 20.8168C95.3291 20.8168 95.9128 21.0113 95.9128 21.595C95.9128 21.9841 95.5237 22.3732 95.1346 22.3732C94.5509 22.3732 94.1618 21.9841 93.9673 21.595C93.9673 20.8168 94.3564 20.8168 94.7455 20.8168Z" fill="black" fill-opacity="0.88"/>
<path d="M143.578 95.3296C143.383 95.7187 143.189 96.1078 142.8 96.1078C142.216 96.1078 141.632 95.7187 141.632 94.9405C141.632 94.5514 142.021 94.3568 142.605 94.3568C143.189 94.5514 143.578 94.9405 143.578 95.3296Z" fill="black" fill-opacity="0.88"/>
<path d="M61.2832 0.7782C61.4778 0.3891 61.8669 0 62.4505 0C62.8396 0 63.0342 0.389101 62.8396 0.583651C62.6451 0.972751 62.4505 1.5564 61.8669 1.36185C61.4778 1.36185 61.2832 1.1673 61.2832 0.7782Z" fill="black" fill-opacity="0.88"/>
<path d="M33.0734 137.352C32.8788 137.352 32.4897 137.158 32.4897 136.963C32.2952 136.574 32.6843 136.185 33.0734 136.185C33.4625 136.185 33.657 136.38 33.657 136.769C33.8516 137.158 33.657 137.352 33.0734 137.352Z" fill="black" fill-opacity="0.88"/>
<path d="M89.8818 102.333C87.7418 102.333 86.5745 101.555 85.9908 99.9987C85.4072 98.2477 85.9908 97.0804 87.7418 96.8859C89.2982 96.6913 90.66 95.7186 92.411 96.3022C93.3837 96.6913 94.3565 96.8859 94.7456 97.8586C95.1347 99.0259 94.7456 99.9987 93.7729 100.777C92.6055 101.555 91.2437 102.528 89.8818 102.333ZM89.6873 101.166C91.0491 101.166 92.0219 100.777 92.8001 99.8041C93.1892 99.2205 93.3837 98.8314 93.1892 98.2477C92.8001 97.4695 92.0219 97.4695 91.4382 97.4695C90.2709 97.6641 89.2982 98.2477 88.1309 98.4423C87.5472 98.4423 87.3527 99.415 87.7418 100.193C88.1309 100.777 88.9091 101.166 89.6873 101.166Z" fill="black" fill-opacity="0.88"/>
<path d="M42.9946 93.773C42.9946 92.2166 43.5783 91.2439 44.9401 91.2439C46.6911 91.2439 48.442 92.8002 48.442 94.3567C48.442 95.9131 47.4693 96.8858 45.9129 96.8858C44.1619 96.8858 42.9946 95.7185 42.9946 93.773Z" fill="black" fill-opacity="0.88"/>
<path d="M97.0803 69.0653C98.8312 69.0653 100.193 70.0381 100.193 71.2054C100.193 72.7618 99.0258 73.7345 97.0803 73.9291C95.913 73.9291 94.9402 73.54 94.162 72.7618C93.5784 72.1781 92.9947 71.2054 93.3838 70.4272C93.5783 69.4544 94.5511 70.0381 95.1348 69.649C95.7184 69.2599 96.3021 69.0653 97.0803 69.0653ZM98.4421 71.5945C98.2476 70.8163 97.8585 70.6217 97.0803 70.6217C96.3021 70.6217 95.5239 70.6217 95.5239 71.5945C95.5239 72.3727 96.3021 72.3727 96.8857 72.5672C97.6639 72.7618 98.2476 72.3727 98.4421 71.5945Z" fill="black" fill-opacity="0.88"/>
<path d="M72.7614 89.4931C73.7342 89.4931 74.7069 89.4931 75.6797 89.6876C76.2633 89.8822 76.847 90.2713 76.847 90.8549C76.847 91.6331 76.4579 92.2168 75.6797 92.4113C73.9287 92.995 70.8159 91.244 70.8159 89.2985C70.8159 88.3258 71.0105 87.7421 71.9832 87.353C72.5669 87.1585 73.3451 86.9639 73.5396 87.7421C73.9287 88.5203 72.3723 88.3258 72.7614 89.4931Z" fill="black" fill-opacity="0.88"/>
<path d="M60.6996 99.415C60.5051 100.582 60.5051 101.555 60.3105 102.528C59.9214 104.084 58.7541 104.473 57.3923 103.501C56.4195 102.722 55.4468 101.944 55.8359 100.582C56.225 99.415 57.3923 99.2204 58.5596 99.0259C59.1432 99.0259 59.9214 99.0259 60.6996 99.415ZM57.5868 101.555C57.5868 101.944 57.9759 102.333 58.365 102.333C58.9487 102.333 59.1432 101.75 59.1432 101.166C59.1432 100.582 58.7541 100.582 58.365 100.582C57.9759 100.777 57.7814 100.971 57.5868 101.555Z" fill="black" fill-opacity="0.88"/>
<path d="M85.2124 91.4384C85.407 90.6602 85.407 89.2983 86.5743 89.6874C87.3525 89.882 88.9089 89.6874 88.9089 91.2438C88.9089 92.2166 87.7416 93.3839 86.7688 93.3839C85.6015 93.3839 85.2124 92.6057 85.2124 91.4384Z" fill="black" fill-opacity="0.88"/>
<path d="M62.8395 107.975C62.6449 107.197 62.6449 106.419 63.6177 106.419C64.785 106.419 66.3414 107.586 66.3414 108.364C66.1468 109.532 65.5632 110.115 64.3959 110.115C62.6449 110.31 62.6449 109.143 62.8395 107.975Z" fill="black" fill-opacity="0.88"/>
<path d="M90.6604 61.2831C90.6604 62.2559 90.0767 62.8395 89.104 62.8395C88.1312 62.8395 87.353 62.2559 87.353 61.2831C87.1585 60.1158 88.1312 58.9485 89.2985 58.9485C90.8549 58.754 90.4658 60.1158 90.6604 61.2831Z" fill="black" fill-opacity="0.88"/>
<path d="M62.2559 91.8276C61.4777 91.6331 60.3104 91.633 60.5049 90.4657C60.5049 89.2984 61.4777 88.9093 62.645 88.9093C63.6177 88.9093 64.5905 89.1039 64.5905 90.2712C64.3959 91.244 63.6177 91.8276 62.2559 91.8276Z" fill="black" fill-opacity="0.88"/>
<path d="M47.8586 101.75C49.0259 101.75 49.415 102.333 49.415 103.306C49.415 104.473 48.6368 104.862 47.664 104.862C46.6913 104.862 45.9131 104.473 45.9131 103.306C46.1076 101.944 47.2749 102.139 47.8586 101.75Z" fill="black" fill-opacity="0.88"/>
<path d="M99.4143 63.4234C99.9979 63.4234 100.971 63.0343 101.36 64.2016C101.554 64.9798 100.192 65.9525 99.4143 66.1471C98.4415 66.1471 97.4688 65.1743 97.4688 64.2016C97.6633 63.0343 98.6361 63.4234 99.4143 63.4234Z" fill="black" fill-opacity="0.88"/>
<path d="M71.0105 99.415C70.6214 100.777 69.4541 100.582 68.6759 100.777C67.8977 100.777 67.7031 100.388 67.7031 99.6095C67.8977 98.6368 68.4813 98.0531 69.4541 98.0531C70.4268 98.0531 70.8159 98.6368 71.0105 99.415Z" fill="black" fill-opacity="0.88"/>
<path d="M98.053 81.3218C97.4694 81.1272 96.8857 80.9327 96.8857 80.1545C97.0803 78.9872 98.053 78.5981 99.0258 78.5981C99.6094 78.5981 99.9985 78.7926 99.9985 79.3763C100.193 80.349 99.0258 81.3218 98.053 81.3218Z" fill="black" fill-opacity="0.88"/>
<path d="M92.4105 49.2212C91.8269 49.2212 91.2432 49.0266 91.0487 48.2484C90.8541 47.6648 92.6051 46.692 93.3833 46.692C93.7724 46.692 94.1615 47.0812 94.1615 47.4703C94.356 48.2485 93.3833 49.0266 92.4105 49.2212Z" fill="black" fill-opacity="0.88"/>
<path d="M96.4962 87.7421C97.4689 87.7421 98.2471 87.7421 98.2471 88.5203C98.2471 89.493 97.4689 89.8821 96.6907 89.8821C96.1071 89.8821 95.5234 89.6876 95.5234 88.9094C95.5234 87.9366 96.1071 87.7421 96.4962 87.7421Z" fill="black" fill-opacity="0.88"/>
<path d="M84.824 75.4855C84.6295 76.2637 84.0458 76.8473 83.2676 77.2364C82.4894 77.431 82.1003 77.0419 82.1003 76.2637C81.9058 75.0964 82.684 74.9018 83.6567 74.9018C84.2404 74.9018 84.6295 74.9018 84.824 75.4855Z" fill="black" fill-opacity="0.88"/>
<path d="M90.4649 71.9834C90.4649 72.5671 90.2704 72.7616 89.8813 72.9562C88.9085 73.1507 87.7412 72.5671 87.7412 71.5943C87.7412 71.3998 87.9358 71.0107 88.1303 70.8161C88.714 70.6216 90.4649 71.3998 90.4649 71.9834Z" fill="black" fill-opacity="0.88"/>
<path d="M93.3838 43.5791C94.162 43.5791 94.5511 43.9682 94.3566 44.7464C94.162 45.5246 93.7729 46.1082 92.9947 45.9137C92.4111 45.7191 92.022 45.33 92.022 44.5518C92.022 43.7736 92.8002 43.5791 93.3838 43.5791Z" fill="black" fill-opacity="0.88"/>
<path d="M78.0143 104.473C77.8197 105.252 77.6252 105.835 76.847 105.641C76.2633 105.446 75.6797 105.252 75.6797 104.473C75.6797 103.89 76.2633 103.501 76.847 103.501C77.8197 103.501 78.0143 104.084 78.0143 104.473Z" fill="black" fill-opacity="0.88"/>
<path d="M87.5474 82.1001C88.1311 82.1001 88.5202 82.4892 88.5202 83.0728C88.5202 83.6565 88.131 84.2401 87.3528 84.0456C86.7692 83.851 86.1855 83.6565 86.1855 82.8783C86.1855 82.2947 86.7692 82.1001 87.5474 82.1001Z" fill="black" fill-opacity="0.88"/>
<path d="M81.3217 84.4346C80.9326 85.0182 80.5435 85.2128 79.7653 85.0182C79.3762 85.0182 78.9871 84.6291 79.1816 84.24C79.3762 83.4618 79.9598 83.6564 80.5435 83.6564C81.1271 83.6564 81.5162 83.8509 81.3217 84.4346Z" fill="black" fill-opacity="0.88"/>
<path d="M97.8584 57.5868C97.8584 58.1704 97.4693 58.5595 97.0802 58.5595C96.4965 58.7541 96.1074 58.1704 96.1074 57.7813C96.1074 57.1977 96.4965 56.8086 97.0802 56.8086C97.4693 57.0031 97.6638 57.1977 97.8584 57.5868Z" fill="black" fill-opacity="0.88"/>
<path d="M89.8813 76.0691C90.2704 76.2636 90.6595 76.2636 90.6595 76.6527C90.6595 77.2364 90.2704 77.6255 89.8813 77.6255C89.4922 77.6255 88.9085 77.2364 89.1031 76.6527C89.1031 76.2636 89.4922 76.2636 89.8813 76.0691Z" fill="black" fill-opacity="0.88"/>
<path d="M56.4192 106.419C56.2246 107.002 56.0301 107.197 55.4464 107.002C54.8628 106.808 54.8628 106.419 54.8628 105.835C54.8628 105.446 55.2519 105.251 55.4464 105.446C56.0301 105.641 56.4192 105.835 56.4192 106.419Z" fill="black" fill-opacity="0.88"/>
<path d="M98.8306 52.3339C98.8306 52.723 98.4415 53.1121 98.0524 53.1121C97.4688 53.1121 97.0797 52.723 97.2742 52.1394C97.4688 51.5557 97.6633 51.5557 98.247 51.7503C98.6361 51.5557 98.8306 51.7503 98.8306 52.3339Z" fill="black" fill-opacity="0.88"/>
<path d="M75.4852 81.9056C76.0689 81.9056 76.2634 82.1001 76.2634 82.4892C76.2634 82.6838 76.0689 83.0729 75.6798 83.0729C75.2907 83.2674 74.9016 83.0729 74.707 82.6838C74.707 82.2947 75.0961 81.9056 75.4852 81.9056Z" fill="black" fill-opacity="0.88"/>
<path d="M91.244 66.1471C91.8277 66.1471 92.2168 66.5362 92.0222 67.1198C92.0222 67.5089 91.6331 67.898 91.244 67.898C90.6604 67.898 90.4658 67.5089 90.4658 66.9253C90.4658 66.3416 90.8549 66.1471 91.244 66.1471Z" fill="black" fill-opacity="0.88"/>
<path d="M94.7452 53.5012C94.3561 54.0849 93.967 54.2794 93.3834 54.0849C92.9943 54.0849 92.9943 53.6958 93.1888 53.5012C93.5779 53.1121 93.967 52.9176 94.3561 52.9176C94.7452 52.9176 94.9398 53.1121 94.7452 53.5012Z" fill="black" fill-opacity="0.88"/>
<path d="M71.7891 109.532C71.9836 109.921 71.5945 110.115 71.4 110.115C71.0109 110.31 70.4272 110.115 70.4272 109.726C70.2327 109.337 70.6218 108.948 71.0109 108.948C71.4 108.948 71.7891 108.948 71.7891 109.532Z" fill="black" fill-opacity="0.88"/>
<path d="M86.9635 43.7737C86.5744 43.7737 85.9907 43.5791 85.9907 42.9955C85.9907 42.4118 86.3798 42.4118 86.7689 42.4118C87.158 42.4118 87.5471 42.6064 87.5471 42.9955C87.5471 43.3846 87.3526 43.5791 86.9635 43.7737Z" fill="black" fill-opacity="0.88"/>
<path d="M50.9716 94.3568C51.3607 94.5514 51.9444 94.5514 51.7498 95.135C51.7498 95.5241 51.3607 95.7187 50.7771 95.7187C50.388 95.7187 50.1934 95.5241 50.1934 95.135C49.9989 94.3568 50.5825 94.5514 50.9716 94.3568Z" fill="black" fill-opacity="0.88"/>
<path d="M103.5 56.6141C103.889 56.6141 104.279 56.8086 104.279 57.1977C104.279 57.5868 103.889 57.7814 103.5 57.5868C103.306 57.5868 102.917 57.3923 102.917 57.1977C102.722 56.8086 102.917 56.6141 103.5 56.6141Z" fill="black" fill-opacity="0.88"/>
<path d="M86.7692 52.1393C86.9637 52.1393 87.3528 52.3339 87.3528 52.5284C87.3528 52.9175 87.1583 53.1121 86.7692 53.1121C86.3801 53.1121 86.1855 52.9175 86.1855 52.5284C86.1855 52.3339 86.3801 52.3339 86.7692 52.1393Z" fill="black" fill-opacity="0.88"/>
<path d="M82.0999 98.4423C82.0999 98.6369 81.7108 98.6369 81.3217 98.8314C81.1271 98.8314 80.5435 98.6369 80.5435 98.4423C80.5435 98.0532 80.738 97.6641 81.1271 97.6641C81.7108 97.4696 82.0999 97.4696 82.0999 98.4423Z" fill="black" fill-opacity="0.88"/>
<path d="M98.8306 94.7459C98.8306 95.135 98.636 95.3295 98.4415 95.5241C98.0524 95.7186 97.8578 95.7186 97.6633 95.3295C97.4687 94.9404 97.6633 94.5513 98.2469 94.5513C98.2469 94.5513 98.636 94.7459 98.8306 94.7459Z" fill="black" fill-opacity="0.88"/>
<path d="M104.084 70.6217C103.889 71.3999 103.695 71.3999 103.111 71.3999C102.527 71.3999 102.527 71.0108 102.527 70.6217C102.527 70.4271 102.916 70.2326 103.306 70.2326C103.695 70.2326 104.084 70.2326 104.084 70.6217Z" fill="black" fill-opacity="0.88"/>
<path d="M63.4232 96.6913C63.4232 97.0804 63.2286 97.2749 63.0341 97.2749C62.645 97.2749 62.2559 97.0804 62.2559 96.6913C62.2559 96.3022 62.4504 96.1076 62.8395 96.1076C63.2286 96.1076 63.4232 96.1076 63.4232 96.6913Z" fill="black" fill-opacity="0.88"/>
</svg>
