<svg width="18" height="18" viewBox="0 0 18 18" fill="none" xmlns="http://www.w3.org/2000/svg">
<path fill-rule="evenodd" clip-rule="evenodd" d="M17.6396 9.2046C17.6396 8.56642 17.5823 7.95279 17.476 7.36371H8.99969V10.845H13.8433C13.6346 11.97 13.0006 12.9232 12.0474 13.5614V15.8195H14.956C16.6578 14.2527 17.6396 11.9455 17.6396 9.2046Z" fill="#4285F4"/>
<path fill-rule="evenodd" clip-rule="evenodd" d="M8.99954 17.9997C11.4295 17.9997 13.4668 17.1938 14.9558 15.8193L12.0472 13.5611C11.2413 14.1011 10.2104 14.4202 8.99954 14.4202C6.65548 14.4202 4.67141 12.8371 3.96369 10.7098H0.956909V13.0416C2.4378 15.9829 5.4814 17.9997 8.99954 17.9997Z" fill="#34A853"/>
<path fill-rule="evenodd" clip-rule="evenodd" d="M3.96405 10.7095C3.78405 10.1695 3.68178 9.59266 3.68178 8.99949C3.68178 8.40631 3.78405 7.8295 3.96405 7.28951V4.95772H0.957262C0.347723 6.1727 0 7.54723 0 8.99949C0 10.4517 0.347723 11.8263 0.957262 13.0413L3.96405 10.7095Z" fill="#FBBC05"/>
<path fill-rule="evenodd" clip-rule="evenodd" d="M8.99955 3.5795C10.3209 3.5795 11.5072 4.03359 12.44 4.9254L15.0213 2.34406C13.4627 0.891808 11.4254 0 8.99955 0C5.4814 0 2.4378 2.0168 0.956909 4.95813L3.96369 7.28992C4.67141 5.16267 6.65548 3.5795 8.99955 3.5795Z" fill="#EA4335"/>
</svg>
